<svg xmlns="http://www.w3.org/2000/svg" xmlns:xlink="http://www.w3.org/1999/xlink" width="256" height="256" viewBox="0 0 256 256">
  <defs>
    <style>
      .cls-1 {
        clip-path: url(#clip-Artboard_2);
      }

      .cls-2 {
        fill: #008400;
      }

      .cls-3 {
        fill: #f7f7f7;
      }
    </style>
    <clipPath id="clip-Artboard_2">
      <rect width="256" height="256"/>
    </clipPath>
  </defs>
  <g id="Artboard_2" data-name="Artboard – 2" class="cls-1">
    <rect class="cls-3" width="256" height="256"/>
    <g id="Excel_Top" data-name="Excel Top" transform="translate(-575.384 -154.452)">
      <path id="Path_17" data-name="Path 17" class="cls-2" d="M718.476,383.385c-38.567-7.41-76.679-14.73-114.981-22.085V204.7l114.981-22.251Zm-56.489-111.11c-3.991-8.556-7.853-16.951-11.844-25.286-.6-1.253-1.743-3.143-2.7-3.183-6.629-.28-13.276-.149-20.522-.149.921,1.869,1.376,2.941,1.953,3.938,6.244,10.748,12.436,21.525,18.817,32.192,1.417,2.364,1.519,4.046-.058,6.442-7.075,10.763-13.923,21.671-20.82,32.547a39.033,39.033,0,0,0-1.8,3.851c6.192,0,11.687-.143,17.167.058,2.816.1,4.294-.968,5.55-3.431,4.457-8.742,9.148-17.368,13.544-25.65,4.615,8.8,9.323,17.82,14.083,26.807.394.746,1.137,1.845,1.737,1.857,6.612.134,13.229.085,20.482.085-7.629-12.73-14.713-24.691-21.977-36.547-1.432-2.335-1.557-4.023-.058-6.437,6.565-10.553,12.894-21.251,19.287-31.912.574-.956.988-2.008,1.793-3.664-5.682,0-10.71.14-15.724-.055-2.941-.114-4.615.93-5.941,3.594C670.817,255.626,666.421,263.792,661.987,272.275Z"/>
      <path id="Path_18" data-name="Path 18" class="cls-2" d="M646.2,213.081V190.81a30.378,30.378,0,0,1,3.568-.414q32.624.057,65.249.189c6.276.032,7.941,1.717,7.944,8.084q.044,69.517-.026,139.04c0,5.072-1.548,7.06-6.568,7.1-23.231.163-46.464.073-70.4.073,0-6.906-.1-13.751.143-20.584.026-.738,1.991-1.959,3.1-2.008,4.938-.222,9.894-.082,14.844-.111,1.609-.009,3.218-.14,5.349-.239,0-4.65.227-8.973-.169-13.24-.09-1-2.248-2.5-3.521-2.568-5.233-.3-10.5-.268-15.742-.093-3.131.1-4.312-1.006-4.093-4.163.227-3.265.049-6.562.049-10.6,6.495,0,12.728-.187,18.942.07,3.533.149,4.65-.968,4.644-4.545-.017-11.532.12-11.532-11.591-11.532H645.94c0-4.7-.2-8.731.152-12.713.082-.93,2.032-2.358,3.18-2.414,5.387-.259,10.795-.227,16.191-.076,2.793.076,4.172-.67,4.008-3.749-.2-3.728-.047-7.477-.047-11.806H645.937c0-4.583-.2-8.6.146-12.573.085-.95,1.968-2.437,3.078-2.49,5.539-.259,11.1-.274,16.642-.064,3.213.122,4.291-1.1,4.073-4.174a54.384,54.384,0,0,1,.006-8.1c.262-3.253-1.181-4.151-4.206-4.078C659.271,213.189,652.863,213.081,646.2,213.081ZM677.327,275.3v15.634h31.154c0-4.632.137-8.944-.117-13.229a3.45,3.45,0,0,0-2.46-2.3C696.505,275.235,687.1,275.3,677.327,275.3Zm-.2-46.088c8.661,0,16.867.032,25.07-.012,6.148-.032,6.148-.076,6.259-6.049.187-10.072.187-10.072-9.748-10.072H677.129Zm31.355,15.345H677.35v15.45c9.684,0,18.966.073,28.245-.111a3.773,3.773,0,0,0,2.758-2.414C708.65,253.336,708.484,249.159,708.484,244.556Zm-31.262,61.929v15.307H708.1V306.485Z" transform="translate(81.11 15.221)"/>
    </g>
  </g>
</svg>
